<svg width="221" height="281" viewBox="0 0 221 281" fill="none" xmlns="http://www.w3.org/2000/svg">
<path d="M130.58 255C171.944 205.11 186.422 169.772 196.763 137.208C198.695 131.124 188.525 125.153 177.115 123C180.767 127.41 185.388 129.236 181.683 137.208C157.736 188.735 147.126 209.268 113 237.331L130.58 255Z" fill="#D5C67B"/>
<path d="M138.591 241.446C160.399 207.517 183.409 171.717 193.823 136.291C194.992 132.313 190.167 129.548 185.587 128C187.053 131.172 187.344 130.825 185.587 135.687C173.581 168.913 152.457 205.711 130 231.636L138.235 242L138.591 241.446Z" fill="#FFEC8B"/>
<path fill-rule="evenodd" clip-rule="evenodd" d="M110 159.431V281L144 281V277H152C157.241 279.811 160.338 280.505 165.984 280.999C166.164 280.996 166.342 280.99 166.518 280.981L166.5 281H183C183 278.27 181.539 272.229 177.288 271.163C177.392 266.047 173.482 260.831 165.5 260.739C161 255.001 133.888 202.276 129.921 157L110 159.431ZM165.882 281L165.5 281C165.628 281.001 165.755 281.001 165.882 281Z" fill="#D5C67B"/>
<path fill-rule="evenodd" clip-rule="evenodd" d="M110 159.431V281L76 281V277H68C62.759 279.811 59.662 280.505 54.016 280.999C53.836 280.996 53.6582 280.99 53.4824 280.981L53.5 281H37C37 278.27 38.4609 272.229 42.7121 271.163C42.6082 266.047 46.518 260.831 54.5 260.739C59 255.001 86.1124 202.276 90.0789 157L110 159.431ZM54.1185 281L54.5 281C54.3718 281.001 54.2446 281.001 54.1185 281Z" fill="#D5C67B"/>
<path d="M149.224 238.046C136.316 208.221 130.858 190.556 127.074 157L110 159.431V248.582C110 251.418 111.846 250.608 111.846 253.039C111.846 250.608 114.142 252.337 114.142 249.5C114.142 252.337 115.983 251.663 115.983 254.5C115.983 251.663 118.284 253.337 118.284 250.5C118.284 253.337 120.585 252.663 120.585 255.5C120.585 252.663 122.886 253.837 122.886 251C122.886 253.965 125.187 254.163 125.187 257C125.187 254.163 127.535 254.337 127.535 251.5V260.739C127.535 268.438 119.665 272 127.074 281H149.686C157.403 273.5 149.224 267.627 149.224 260.739V238.046Z" fill="#FFEC8B"/>
<path d="M70.7759 238.046C83.6841 208.221 89.1424 190.556 92.926 157L110 159.431V248.582C110 251.418 108.154 250.608 108.154 253.039C108.154 250.608 105.858 252.337 105.858 249.5C105.858 252.337 104.017 251.663 104.017 254.5C104.017 251.663 101.716 253.337 101.716 250.5C101.716 253.337 99.4148 252.663 99.4148 255.5C99.4148 252.663 97.1137 253.837 97.1137 251C97.1137 253.965 94.8125 254.163 94.8125 257C94.8125 254.163 92.4645 254.337 92.4645 251.5V260.739C92.4645 268.438 100.335 272 92.926 281H70.3144C62.5967 273.5 70.7759 267.627 70.7759 260.739V238.046Z" fill="#FFEC8B"/>
<path d="M131 173.85C114.2 183.581 105.207 183.184 89 173.85L92 153H128L131 173.85Z" fill="#D5C67B"/>
<path d="M131.477 281H128.508C127.395 279.2 128.21 278 129.992 278C131.848 278 132.59 279.2 131.477 281Z" fill="#D5C67B"/>
<path d="M137.346 281H133.635C132.243 279.2 133.262 278 135.491 278C137.81 278 138.738 279.2 137.346 281Z" fill="#D5C67B"/>
<path d="M143.346 281H139.635C138.243 279.2 139.262 278 141.491 278C143.81 278 144.738 279.2 143.346 281Z" fill="#D5C67B"/>
<path d="M148.477 281H145.508C144.395 279.2 145.21 278 146.992 278C148.848 278 149.59 279.2 148.477 281Z" fill="#D5C67B"/>
<path d="M130.512 165C122.698 167.769 118.791 169.154 110 169.154V174C117.814 174 125.628 171.923 131 169.846L130.512 165Z" fill="#07500A"/>
<path d="M88.5231 281H91.4919C92.6052 279.2 91.79 278 90.0075 278C88.152 278 87.4098 279.2 88.5231 281Z" fill="#D5C67B"/>
<path d="M82.6539 281H86.3649C87.7565 279.2 86.7375 278 84.5094 278C82.19 278 81.2622 279.2 82.6539 281Z" fill="#D5C67B"/>
<path d="M76.6539 281H80.3649C81.7565 279.2 80.7375 278 78.5094 278C76.19 278 75.2622 279.2 76.6539 281Z" fill="#D5C67B"/>
<path d="M71.5231 281H74.4919C75.6052 279.2 74.79 278 73.0075 278C71.152 278 70.4098 279.2 71.5231 281Z" fill="#D5C67B"/>
<path d="M89.4884 165C97.3023 167.769 101.209 169.154 110 169.154V174C102.186 174 94.3721 171.923 89 169.846L89.4884 165Z" fill="#07500A"/>
<circle cx="110.5" cy="171.5" r="11.5" fill="#F1CB0F"/>
<path fill-rule="evenodd" clip-rule="evenodd" d="M110.5 183C116.851 183 122 177.851 122 171.5C122 165.149 116.851 160 110.5 160C104.149 160 99 165.149 99 171.5C99 177.851 104.149 183 110.5 183ZM110.5 181.083C115.793 181.083 120.083 176.793 120.083 171.5C120.083 166.207 115.793 161.917 110.5 161.917C105.207 161.917 100.917 166.207 100.917 171.5C100.917 176.793 105.207 181.083 110.5 181.083Z" fill="#07500A"/>
<path fill-rule="evenodd" clip-rule="evenodd" d="M111.377 170.249C113.834 171.436 115.744 169.118 114.632 167.73C113.552 166.582 111.992 165.9 110.291 165.991C107.214 166.156 104.842 168.787 104.993 171.869C105.143 174.951 107.76 177.316 110.837 177.152C112.466 177.065 113.899 176.285 114.863 175.113C115.629 173.75 114.157 171.857 111.513 173.039C108.468 174.401 108.844 169.026 111.377 170.249Z" fill="#07500A"/>
<path fill-rule="evenodd" clip-rule="evenodd" d="M196.277 92.4318C201.917 88.1713 206 75.7095 206 61C206 42.7746 199.732 28 192 28C185.625 28 180.245 38.0447 178.553 51.7863C185.209 54.8309 190.273 75.1869 192.363 83.9323C193.201 87.4423 194.577 90.2919 196.277 92.4318Z" fill="#D5C67B"/>
<path fill-rule="evenodd" clip-rule="evenodd" d="M110.5 7.94483C133.738 7.94483 155.373 14.1116 173.001 25.5642C192.5 -13.4421 205.301 -0.864861 213.066 17.6355C219.722 33.4929 224.383 61.5717 217.874 83.7082C212.988 100.324 199.427 100.595 193.812 88.3526C199.325 85.3015 203.42 73.8873 203.42 60.2727C203.42 44.3224 197.799 31.3921 190.864 31.3921C185.221 31.3921 180.448 39.951 178.865 51.7318C178.005 51.2224 177.118 50.9946 176.206 51.1123C176.206 85.4312 175.439 97.6357 165.75 125.299C158.626 145.64 142.188 159.472 110.5 159.472V7.94483Z" fill="#FFEC8B"/>
<path fill-rule="evenodd" clip-rule="evenodd" d="M24.7232 92.4318C19.0829 88.1713 15 75.7095 15 61C15 42.7746 21.268 28 29 28C35.3753 28 40.7553 38.0447 42.447 51.7863C35.7911 54.8309 30.7274 75.1869 28.6375 83.9323C27.7986 87.4423 26.423 90.2919 24.7232 92.4318Z" fill="#D5C67B"/>
<path fill-rule="evenodd" clip-rule="evenodd" d="M110.5 7.94483C87.2624 7.94483 65.6273 14.1116 47.9988 25.5642C28.5003 -13.4421 15.699 -0.864861 7.9339 17.6355C1.27813 33.4929 -3.38291 61.5717 3.12612 83.7082C8.01171 100.324 21.5725 100.595 27.1876 88.3526C21.6754 85.3015 17.5795 73.8873 17.5795 60.2727C17.5795 44.3224 23.2014 31.3921 30.1364 31.3921C35.7786 31.3921 40.5516 39.951 42.135 51.7318C42.9946 51.2224 43.8818 50.9946 44.7936 51.1123C44.7936 85.4312 45.5613 97.6357 55.25 125.299C62.3741 145.64 78.8125 159.472 110.5 159.472V7.94483Z" fill="#FFEC8B"/>
<path d="M126 50.2304V71.0664C126 82.2733 147 82.2733 147 71.0664V50.2304C147 38.0897 126 39.0236 126 50.2304Z" fill="black"/>
<ellipse cx="133" cy="49.9716" rx="6" ry="6.5" fill="white"/>
<path d="M130.579 96.4716H111V118.472H130.579C142.251 118.472 141.354 96.4716 130.579 96.4716Z" fill="#D5C67B"/>
<path d="M90.7217 96.4716H111V118.472H90.7217C78.6325 118.472 79.5624 96.4716 90.7217 96.4716Z" fill="#D5C67B"/>
<path d="M94 50.2304V71.0664C94 82.2733 74 82.2733 74 71.0664V50.2304C74 38.0897 94 39.0236 94 50.2304Z" fill="black"/>
<path d="M99.8658 92.4716H111V106.472H99.8658C91.8876 106.461 92.2035 92.4847 99.8658 92.4716Z" fill="black"/>
<circle r="6.5" transform="matrix(-1 0 0 1 86.5 49.9716)" fill="white"/>
<path d="M124 126.472H97V141.017C97 148.29 124 148.29 124 141.017V126.472Z" fill="#F19191"/>
<path d="M113 126.472H108.003V137.757C107.857 141.425 112.844 141.327 113 137.757V126.472Z" fill="#BE7474"/>
<path d="M122.134 92.4716H111V106.472H122.134C130.112 106.461 129.797 92.4847 122.134 92.4716Z" fill="black"/>
<rect x="97" y="118.472" width="27" height="8" fill="#C76666"/>
</svg>
